PathFileType	4	(X/Y/Z)	W08_1_OpenSim.trc																																																																																																																						
DataRate	CameraRate	NumFrames	NumMarkers	Units	OrigDataRate	OrigDataStartFrame	OrigNumFrames																																																																																																																		
100	100	9	40	mm	100	376	3000																																																																																																																		
Frame#	Time	R.ASIS			R.PSIS			S2			L.PSIS			L.ASIS			R.TH1			R.TH2			R.TH3			R.MKnee			R.Knee			R.SH1			R.SH2			R.SH3			R.SH4			R.Ankle			R.MAnkle			R.Heel			R.MT5			R.MT1			L.TH1			L.TH2			L.TH3			L.TH4			L.MKnee			L.Knee			L.SH1			L.SH2			L.SH3			L.Ankle			L.MAnkle			L.Heel			L.MT5			L.MT1			R.Acr			L.Acr			C7			T10			Clav			Sternum			R.Back		
		X1	Y1	Z1	X2	Y2	Z2	X3	Y3	Z3	X4	Y4	Z4	X5	Y5	Z5	X6	Y6	Z6	X7	Y7	Z7	X8	Y8	Z8	X9	Y9	Z9	X10	Y10	Z10	X11	Y11	Z11	X12	Y12	Z12	X13	Y13	Z13	X14	Y14	Z14	X15	Y15	Z15	X16	Y16	Z16	X17	Y17	Z17	X18	Y18	Z18	X19	Y19	Z19	X20	Y20	Z20	X21	Y21	Z21	X22	Y22	Z22	X23	Y23	Z23	X24	Y24	Z24	X25	Y25	Z25	X26	Y26	Z26	X27	Y27	Z27	X28	Y28	Z28	X29	Y29	Z29	X30	Y30	Z30	X31	Y31	Z31	X32	Y32	Z32	X33	Y33	Z33	X34	Y34	Z34	X35	Y35	Z35	X36	Y36	Z36	X37	Y37	Z37	X38	Y38	Z38	X39	Y39	Z39	X40	Y40	Z40
376	3.75	976.7579	1069.8791	-381.3607	780.6085	1065.2701	-462.0279	772.2313	1058.5391	-506.7234	771.1055	1061.9232	-556.889	940.4226	1055.4723	-675.0402	1001.9955	746.8226	-359.6765	921.8497	730.8104	-348.5099	942.9233	623.4371	-365.321	978.8859	510.5509	-497.0103	988.4946	511.4092	-381.051	1003.9649	345.9067	-384.5705	1008.9743	235.6016	-406.8	922.8723	340.3584	-368.9839	932.6078	228.307	-383.2229	952.9777	73.8569	-403.554	989.8893	95.0555	-496.4473	895.8444	35.1249	-463.5534	1068.2908	38.3532	-376.5824	1118.8274	40.239	-464.4112	982.1647	763.1708	-693.3956	995.1322	654.7705	-695.8693	899.9827	749.7411	-702.0935	916.9046	641.0557	-697.189	995.517	491.4427	-589.954	976.314	509.7199	-703.0675	889.8329	407.8712	-720.3008	837.4665	471.5755	-713.812	755.2876	398.7799	-709.2238	634.6472	231.5887	-716.8968	671.4713	213.0294	-622.8391	568.3538	253.0996	-654.8995	665.0068	117.6377	-739.268	711.3381	96.9731	-643.3301	909.7181	1456.8386	-356.0133	868.0921	1448.5842	-681.3466	829.1713	1496.7197	-515.7076	806.1128	1168.9471	-515.5535	968.0629	1403.8843	-528.1681	1000.734	1262.1832	-523.1191	763.1355	1395.9347	-423.7351
377	3.76	975.4742	1070.5313	-379.4188	779.3793	1065.8302	-460.6255	771.0726	1059.1338	-505.342	769.9972	1062.6334	-555.4833	939.5541	1056.7993	-673.3513	998.3153	746.6134	-358.5294	918.2362	731.4104	-347.259	938.0897	623.894	-364.0872	973.1367	510.5553	-495.9406	982.368	511.273	-379.8882	996.937	345.6597	-383.7299	1001.517	235.3797	-406.1892	915.79	340.386	-368.3334	925.0814	228.3274	-382.8069	944.9094	73.8225	-403.5258	981.875	95.0991	-496.3394	887.8643	35.1005	-463.5373	1060.2114	38.3009	-376.5548	1110.7673	40.2329	-464.3921	984.9383	766.3856	-692.8393	1000.266	658.4119	-695.9376	903.0687	751.3168	-701.1979	922.2526	642.9983	-696.86	1004.3068	494.5949	-590.0102	984.3657	513.1064	-703.3775	897.6952	411.705	-719.9833	845.683	475.5319	-712.2687	763.2909	403.0199	-707.3132	641.9964	236.4439	-714.7702	679.6934	217.2746	-621.0919	576.4515	257.7104	-651.9269	671.8333	122.5525	-738.1215	719.1588	101.0306	-642.9303	909.8035	1457.8113	-355.0008	866.4418	1449.0792	-680.1703	828.5348	1497.6798	-514.3075	805.1443	1169.8303	-513.5853	967.2313	1404.554	-527.273	999.7397	1262.7792	-522.1584	762.7198	1397.1168	-421.8408
378	3.77	974.0784	1071.1293	-377.4796	778.0785	1066.369	-459.3497	769.8538	1059.7274	-504.0965	768.8084	1063.3883	-554.1968	938.7653	1058.2094	-671.6758	994.5226	746.404	-357.4503	914.501	731.9634	-346.1525	933.1497	624.3394	-363.01	967.3856	510.5313	-494.9578	976.2222	511.1465	-378.8286	989.9204	345.4242	-382.9708	994.0674	235.1626	-405.6452	908.7485	340.4112	-367.7287	917.5886	228.342	-382.4044	936.8575	73.7946	-403.5131	973.856	95.1384	-496.2672	879.9014	35.0588	-463.519	1052.1554	38.2427	-376.5257	1102.703	40.2325	-464.3895	987.4136	769.6304	-692.3159	1005.063	662.1525	-696.0118	905.914	752.9782	-700.3899	927.278	645.0731	-696.604	1012.6797	497.8784	-590.0068	991.9979	516.5617	-703.6183	905.4132	415.3144	-719.6281	853.5425	479.0338	-710.6018	771.1992	406.5062	-705.3292	649.9694	239.9956	-712.7321	688.5018	220.3807	-619.4149	584.9851	260.7304	-649.1218	679.815	126.3362	-737.0283	728.0744	104.2438	-642.4638	909.7103	1458.7969	-354.0392	864.7693	1449.5493	-679.0687	827.8333	1498.5907	-513.0087	804.132	1170.6602	-511.7028	966.332	1405.1936	-526.4241	998.6935	1263.3734	-521.1998	762.1985	1398.2408	-420.1014
379	3.78	972.613	1071.6762	-375.5901	776.7233	1066.8948	-458.1865	768.5787	1060.3168	-502.9684	767.5413	1064.1564	-553.02	937.983	1059.632	-670.0442	990.6451	746.1945	-356.4106	910.6456	732.4897	-345.1631	928.1207	624.7723	-362.053	961.6432	510.4788	-494.0243	970.0593	511.0308	-377.838	982.924	345.1962	-382.2618	986.6251	234.9583	-405.1472	901.7559	340.4414	-367.1228	910.1394	228.3551	-381.9805	928.818	73.7688	-403.4925	965.8317	95.1788	-496.2133	871.9507	35.0062	-463.4988	1044.1169	38.1793	-376.4837	1094.63	40.2435	-464.3946	989.6004	772.8746	-691.8237	1009.5189	665.9379	-696.0718	908.5194	754.6947	-699.6735	931.98	647.2422	-696.4185	1020.5998	501.2674	-589.9171	999.2289	520.0349	-703.7714	913.0256	418.6305	-719.2305	861.0785	482.0242	-708.898	779.0328	409.1886	-703.3575	658.5511	242.2271	-710.8385	697.8715	222.3472	-617.8433	593.9462	262.1931	-646.5595	688.8926	128.928	-735.9882	738.0226	106.5513	-641.9397	909.4511	1459.8103	-353.1105	863.0965	1450.0007	-678.0278	827.0722	1499.4503	-511.8012	803.0929	1171.4484	-509.9221	965.3757	1405.8154	-525.6097	997.6063	1263.9777	-520.2308	761.5909	1399.3024	-418.4978
380	3.79	971.116	1072.1713	-373.7977	775.3247	1067.4067	-457.1197	767.2487	1060.8915	-501.9372	766.2046	1064.899	-551.9405	937.1346	1060.991	-668.4886	986.7086	745.9771	-355.3859	906.6829	733.006	-344.256	923.0267	625.1888	-361.1753	955.9126	510.402	-493.1101	963.8739	510.9245	-376.8869	975.9426	344.9729	-381.574	979.1805	234.7727	-404.6726	894.8001	340.4831	-366.4897	902.7241	228.374	-381.5187	920.7869	73.74	-403.4493	957.8024	95.2237	-496.1601	864.0072	34.9504	-463.4778	1036.0891	38.1128	-376.4183	1086.5442	40.2687	-464.4019	991.5164	776.0909	-691.3614	1013.6327	669.7145	-696.1059	910.8842	756.4403	-699.0491	936.3588	649.47	-696.2955	1028.0316	504.737	-589.7194	1006.064	523.4864	-703.8201	920.556	421.606	-718.7949	868.3052	484.4694	-707.243	786.8061	411.0388	-701.4806	667.7225	243.1432	-709.1348	707.7819	223.2013	-616.4068	603.3291	262.1372	-644.2997	699.0179	130.3066	-735.0034	748.952	107.939	-641.3669	909.0496	1460.8519	-352.209	861.4382	1450.4323	-677.0401	826.2589	1500.2551	-510.678	802.0369	1172.2022	-508.2557	964.3741	1406.4203	-524.8213	996.488	1264.5917	-519.2511	760.9169	1400.2975	-417.0098
381	3.8	969.618	1072.6102	-372.142	773.8892	1067.8975	-456.1333	765.8652	1061.4355	-500.9826	764.8097	1065.5824	-550.9434	936.1657	1062.2217	-667.0388	982.7346	745.7405	-354.3619	902.636	733.5208	-343.3979	917.8909	625.5834	-360.3424	950.1894	510.3073	-492.1981	957.6552	510.8228	-375.9574	968.962	344.7547	-380.8878	971.7224	234.6066	-404.2022	887.8548	340.5416	-365.8268	895.317	228.4064	-381.0214	912.7607	73.7051	-403.3785	949.7698	95.2725	-496.0938	856.062	34.9009	-463.4577	1028.0654	38.0465	-376.3247	1078.444	40.3083	-464.4061	993.1815	779.2537	-690.9302	1017.4006	673.4331	-696.1058	913.0065	758.192	-698.5142	940.4116	651.722	-696.22	1034.9447	508.26	-589.408	1012.4934	526.8872	-703.7526	928.0115	424.2095	-718.3333	875.2233	486.3517	-705.7173	794.5327	412.0431	-699.7763	677.4695	242.7666	-707.6565	718.213	222.9884	-615.1327	613.1314	260.6088	-642.3922	710.1584	130.4859	-734.079	760.8185	108.4287	-640.7523	908.5378	1461.9071	-351.3382	859.803	1450.8361	-676.1035	825.4028	1500.9992	-509.6333	800.9668	1172.9224	-506.7071	963.3397	1407.0011	-524.0558	995.3474	1265.2043	-518.2717	760.1957	1401.2235	-415.6183
382	3.81	968.1421	1072.9852	-370.65	772.4218	1068.3556	-455.2123	764.4321	1061.9324	-500.0863	763.3657	1066.1842	-550.0135	935.0455	1063.2786	-665.7168	978.7391	745.4748	-353.3409	898.5322	734.0342	-342.5644	912.7306	625.9508	-359.5353	944.4554	510.2016	-491.2857	951.3931	510.7203	-375.0453	961.9669	344.5439	-380.1971	964.2426	234.4572	-403.7252	880.8889	340.6209	-365.1489	887.8879	228.4589	-380.5072	904.7339	73.6649	-403.2809	941.7372	95.321	-496.0068	848.0981	34.8687	-463.4408	1020.0408	37.9826	-376.2047	1070.3313	40.3613	-464.3978	994.611	782.3389	-690.5331	1020.8115	677.0534	-696.0582	914.8842	759.9288	-698.0625	944.1308	653.9652	-696.1675	1041.3115	511.8015	-588.9966	1018.4985	530.2148	-703.5634	935.3886	426.4194	-717.863	881.8296	487.6616	-704.3925	802.228	412.1989	-698.3149	687.7875	241.1357	-706.4312	729.1445	221.765	-614.0437	623.355	257.6637	-640.8773	722.2935	129.5079	-733.2248	773.5829	108.0663	-640.1022	907.9506	1462.9495	-350.5052	858.1959	1451.2004	-675.2181	824.5149	1501.6765	-508.6619	799.8816	1173.6058	-505.2702	962.2849	1407.5467	-523.3185	994.1895	1265.7964	-517.3136	759.4443	1402.0806	-414.3063
383	3.82	966.7029	1073.2865	-369.3343	770.9274	1068.7688	-454.3437	762.9571	1062.3679	-499.2343	761.8802	1066.6939	-549.1378	933.7712	1064.1412	-664.5325	974.7341	745.1737	-352.3435	894.3966	734.539	-341.7447	907.5595	626.2883	-358.7509	938.6766	510.092	-490.3844	945.0837	510.6123	-374.1554	954.9456	344.3436	-379.5077	956.7377	234.3212	-403.2415	873.8777	340.7231	-364.4773	880.4164	228.5349	-380.0053	896.7001	73.6223	-403.1634	933.7084	95.364	-495.8977	840.096	34.8631	-463.4318	1012.0129	37.9217	-376.0655	1062.2119	40.4247	-464.365	995.8152	785.3242	-690.1724	1023.8528	680.5426	-695.9465	916.5161	761.6313	-697.6844	947.5059	656.1683	-696.108	1047.1082	515.318	-588.5095	1024.0604	533.4497	-703.2549	942.6805	428.2218	-717.4011	888.1251	488.3928	-703.3264	809.9055	411.5153	-697.156	698.6813	238.3034	-705.4799	740.5558	219.5945	-613.1561	634.0102	253.369	-639.7839	735.4116	127.4357	-732.453	787.2096	106.9132	-639.4244	907.3223	1463.9481	-349.7168	856.6206	1451.5131	-674.3843	823.6062	1502.2841	-507.7602	798.7797	1174.2474	-503.9317	961.2208	1408.0454	-522.6209	993.0157	1266.3427	-516.4029	758.6765	1402.8715	-413.0618
384	3.83	965.3071	1073.5032	-368.193	769.411	1069.1273	-453.5179	761.4509	1062.7344	-498.4182	760.3626	1067.1111	-548.3079	932.3668	1064.8165	-663.4837	970.7317	744.8337	-351.4031	890.2515	735.0239	-340.9401	902.3933	626.5956	-357.9959	932.8148	509.9833	-489.514	938.7321	510.4946	-373.2978	947.8928	344.1554	-378.8331	949.2071	234.1951	-402.7602	866.8162	340.8455	-363.8299	872.9023	228.6332	-379.5452	888.6527	73.5803	-403.0395	925.6856	95.3986	-495.7725	832.0445	34.8874	-463.4377	1003.981	37.8632	-375.9169	1054.0911	40.4931	-464.2996	996.8027	788.1899	-689.8454	1026.5171	683.8704	-695.7598	917.9026	763.2806	-697.3666	950.5261	658.3038	-696.0131	1052.3165	518.7617	-587.9687	1029.1624	536.5692	-702.8367	949.8845	429.6109	-716.9581	894.1156	488.5419	-702.5593	817.5738	410.0143	-696.3433	710.1615	234.3361	-704.816	752.4296	216.5443	-612.48	645.1188	247.8001	-639.1263	749.5052	124.3502	-731.7754	801.6659	105.0413	-638.7316	906.6832	1464.8724	-348.98	855.0781	1451.7632	-673.6041	822.6881	1502.8214	-506.9277	797.6607	1174.8408	-502.6768	960.1575	1408.4862	-521.9752	991.8297	1266.8179	-515.5632	757.9039	1403.601	-411.8785
